<?xml version="1.0" encoding="UTF-8" standalone="no"?>
<!DOCTYPE xml>
<svg xmlns="http://www.w3.org/2000/svg" xmlns:xlink="http://www.w3.org/1999/xlink" version="1.1" width="512" height="512" viewBox="0 0 500 500" xml:space="preserve">
	<defs></defs>
	<g transform="matrix(0.94 0 0 0.94 250 250)" id="eH_EcHTx9DFyEu3IuyNFn">
		<g style="" vector-effect="non-scaling-stroke">
			<g transform="matrix(0 -2.88 2.88 0 0 0)" id="R8UXVw4DjCj9o8xM_j-wn">
				<path style="stroke: none; stroke-width: 1; stroke-dasharray: none; stroke-linecap: butt; stroke-dashoffset: 0; stroke-linejoin: miter; stroke-miterlimit: 4; fill: rgb(237,41,57); fill-rule: nonzero; opacity: 1;" vector-effect="non-scaling-stroke" transform=" translate(-88.65, -86.87)" d="M 34.182 170.695 L 0.516 67.083 L 88.655 3.046 L 176.793 67.083 L 143.127 170.695 Z" stroke-linecap="round" />
			</g>
			<g transform="matrix(0.32 -2.21 2.21 0.32 0 0)" id="LSsB-50yDxfOTgI5Y0wMB">
				<path style="stroke: none; stroke-width: 1; stroke-dasharray: none; stroke-linecap: butt; stroke-dashoffset: 0; stroke-linejoin: miter; stroke-miterlimit: 4; fill: rgb(255,255,255); fill-rule: nonzero; opacity: 1;" vector-effect="non-scaling-stroke" transform=" translate(-88.65, -86.87)" d="M 34.182 170.695 L 0.516 67.083 L 88.655 3.046 L 176.793 67.083 L 143.127 170.695 Z" stroke-linecap="round" />
			</g>
			<g transform="matrix(2.7 0 0 3.01 36.1 0)" id="Nb7NWwot2-Fl_Yu5mX9ud">
				<path style="stroke: none; stroke-width: 1; stroke-dasharray: none; stroke-linecap: butt; stroke-dashoffset: 0; stroke-linejoin: miter; stroke-miterlimit: 4; fill: rgb(0,38,84); fill-rule: nonzero; opacity: 1;" vector-effect="non-scaling-stroke" transform=" translate(-50.39, -51.29)" d="M 87.2 42.2 C 70.1 33.1 53.1 48.300000000000004 50.400000000000006 49.2 C 35.60000000000001 54.6 28.900000000000006 44 28.400000000000006 34.2 C 27.900000000000006 22.800000000000004 20.800000000000004 18.200000000000003 20.800000000000004 18.200000000000003 C 29.700000000000003 15.200000000000003 20.400000000000006 15.600000000000003 24.700000000000003 13.000000000000004 C 29.000000000000004 10.400000000000004 21.200000000000003 12.800000000000004 21.200000000000003 10.600000000000003 C 21.200000000000003 8.400000000000002 16.700000000000003 14.100000000000003 16.700000000000003 11.500000000000004 C 16.700000000000003 8.900000000000004 14.300000000000002 15.200000000000003 12.600000000000003 13.000000000000004 C 10.900000000000004 10.800000000000004 12.400000000000004 16.900000000000002 10.000000000000004 16.700000000000003 C 7.6 16.5 9.4 21 9.4 21 C 9.4 21 14.4 21.4 12.2 22.5 C 10 23.6 6.8999999999999995 28.8 8.5 27.5 C 9.6 26.6 12.8 26.6 13.3 28.4 C 13.700000000000001 30.099999999999998 5.300000000000001 34.1 6.000000000000001 47.8 C 6.6000000000000005 61.199999999999996 18.1 61.199999999999996 21.6 70.9 C 24.400000000000002 81.30000000000001 22.3 85.4 21.1 86.9 C 18.3 87.30000000000001 13.200000000000001 88.30000000000001 12.700000000000001 91.2 C 14.500000000000002 90.10000000000001 16.8 89.2 18.8 88.60000000000001 C 17.400000000000002 89.60000000000001 15.9 90.9 15.600000000000001 92.30000000000001 C 17.1 91.10000000000001 18.900000000000002 90.00000000000001 20.5 89.20000000000002 C 19.6 90.40000000000002 18.8 91.60000000000002 18.8 92.50000000000001 C 20.8 90.90000000000002 22 89.60000000000001 22.7 88.90000000000002 C 22.9 89.20000000000002 23.099999999999998 90.10000000000002 23.4 92.30000000000003 C 24.799999999999997 89.90000000000002 24.599999999999998 87.50000000000003 24.4 86.30000000000003 C 25.2 85.70000000000003 25.9 85.10000000000002 26 84.90000000000002 C 26.2 84.70000000000002 25.4 84.90000000000002 24.2 85.40000000000002 C 24.4 83.90000000000002 26.099999999999998 69.10000000000002 28.5 71.00000000000001 C 35.9 76.90000000000002 34.5 81.90000000000002 33.5 84.10000000000001 C 31.6 84.50000000000001 28.7 85.4 28 87.4 C 29 86.9 30 86.3 31 86 C 29.6 87 28.2 88.3 27.9 89.6 C 29.299999999999997 88.39999999999999 31.099999999999998 87.3 32.6 86.5 C 32.6 86.6 32.5 86.6 32.5 86.7 C 31.7 87.8 31 89 31 89.8 C 32 89 32.8 88.3 33.4 87.7 C 33.5 87.7 33.6 87.7 33.699999999999996 87.60000000000001 C 33.8 87.60000000000001 33.8 87.60000000000001 33.9 87.60000000000001 C 33.3 89.2 32.5 90.80000000000001 34 89.10000000000001 C 34.8 88.2 35.2 87.50000000000001 35.5 86.80000000000001 C 35.9 86.30000000000001 35.9 85.70000000000002 36.1 84.70000000000002 C 36.2 84.40000000000002 36.2 84.10000000000002 36.2 83.80000000000001 C 36.900000000000006 83.30000000000001 37.400000000000006 82.9 37.5 82.70000000000002 C 37.6 82.50000000000001 37.1 82.70000000000002 36.2 83.00000000000001 C 36.400000000000006 79.10000000000001 34.800000000000004 74.70000000000002 34.5 73.90000000000002 C 34.2 73.00000000000001 32.9 70.50000000000001 38.6 73.70000000000002 C 48.8 79.80000000000001 51.3 70.70000000000002 53.3 71.50000000000001 C 54 71.80000000000001 54.5 72.90000000000002 53.099999999999994 73.90000000000002 C 55.89999999999999 73.70000000000002 57.099999999999994 72.30000000000003 58.49999999999999 70.70000000000002 C 58.49999999999999 71.90000000000002 58.89999999999999 73.30000000000001 56.79999999999999 75.00000000000001 C 65.79999999999998 73.40000000000002 64.29999999999998 61.600000000000016 66.1 65.30000000000001 C 67.19999999999999 67.70000000000002 66.8 70.60000000000001 63.89999999999999 75.70000000000002 C 71.6 72.10000000000002 70.6 58.600000000000016 71.8 61.40000000000002 C 72.89999999999999 64.30000000000003 73 70.00000000000001 70.6 74.90000000000002 C 75.8 71.70000000000002 76 64.30000000000003 76 61.70000000000002 C 76 59.100000000000016 74.5 55.90000000000002 76.6 58.000000000000014 C 86.5 70.7 63 83 75.7 76.3 C 88.4 69.6 84.7 56.5 83.5 54.5 C 82.8 53.1 81.9 50.1 84.1 52.1 C 94.89999999999999 64.6 81.6 80.1 81.6 80.1 C 89.8 78.7 103.5 50.9 87.2 42.2" stroke-linecap="round" />
			</g>
		</g>
	</g>
</svg>